<?xml version="1.0" encoding="UTF-8"?>
<svg version="1.1" xmlns="http://www.w3.org/2000/svg" width="512" height="512">
<path d="M0 0 C31.68 0 63.36 0 96 0 C96 36.96 96 73.92 96 112 C103.26 112 110.52 112 118 112 C125.75862069 117.17241379 125.75862069 117.17241379 128 122 C128.75381535 127.5997712 128.77303575 132.33499991 126.375 137.5 C122.98811998 141.06513686 120.41544878 143.69639119 115.45166016 144.3203125 C112.49977605 144.39313609 109.57603303 144.3490024 106.625 144.25 C105.60277344 144.23195312 104.58054687 144.21390625 103.52734375 144.1953125 C101.01782302 144.14840557 98.50878783 144.07666924 96 144 C96 149.28 96 154.56 96 160 C98.18625 159.9175 100.3725 159.835 102.625 159.75 C108.48275349 159.5289527 111.44976507 160.24275207 116 164 C118.31640625 166.56640625 118.31640625 166.56640625 120.5625 169.5625 C120.98031738 170.11768311 121.39813477 170.67286621 121.82861328 171.24487305 C126.07896503 176.96340134 130.05192552 182.87571128 134.04125977 188.77758789 C137.55946063 193.96254863 141.19975508 199.0186998 145 204 C149.95147798 210.49279091 154.57332785 217.16908136 159.14453125 223.93359375 C163.08242 229.73234639 167.21176138 235.34578808 171.46289062 240.91723633 C176.0740337 247.00257101 180.37407083 253.28620905 184.63671875 259.61914062 C185.14847656 260.37775391 185.66023438 261.13636719 186.1875 261.91796875 C186.63480469 262.58594482 187.08210938 263.2539209 187.54296875 263.94213867 C188.02378906 264.62123291 188.50460937 265.30032715 189 266 C189.5343869 266.85515198 190.0687738 267.71030396 190.61935425 268.59136963 C193.28484953 271.28819795 194.67198967 271.58708182 198.40003967 271.64112854 C199.10865646 271.62621872 199.81727325 271.6113089 200.54736328 271.59594727 C201.30241653 271.6000058 202.05746979 271.60406433 202.83540344 271.60824585 C204.47285093 271.61375991 206.11036866 271.60776327 207.74774551 271.59158516 C210.34729668 271.56614214 212.94526342 271.57097177 215.54489136 271.58348083 C221.07176802 271.60423744 226.59815565 271.58457427 232.125 271.5625 C238.51170887 271.54133951 244.8979044 271.53698198 251.28460312 271.56300163 C253.83171971 271.5663393 256.37783628 271.54521312 258.92483521 271.52259827 C269.86442 271.50213862 279.15590403 272.53299056 287.46875 280.296875 C294.43356447 288.04345436 296.30039798 295.88481609 296.29052734 306.06933594 C296.29724457 307.06852051 296.30396179 308.06770508 296.31088257 309.09716797 C296.32984458 312.39295457 296.33378607 315.68853728 296.3359375 318.984375 C296.34236731 321.28354983 296.34909581 323.58272385 296.35610962 325.88189697 C296.36807836 330.70025529 296.37179091 335.51854193 296.37060547 340.33691406 C296.37040245 346.49473688 296.39768881 352.65209729 296.43214989 358.80981064 C296.45444853 363.55920499 296.45844207 368.30848866 296.45738602 373.05792999 C296.45973811 375.32720786 296.46853939 377.59648896 296.48405075 379.86571503 C296.50376752 383.04849587 296.49784956 386.23028728 296.48583984 389.41308594 C296.49707886 390.34018372 296.50831787 391.26728149 296.51989746 392.22247314 C296.43559573 401.06717231 293.80726337 408.93300589 287.703125 415.46875 C281.10757312 421.39869572 274.06835114 424.26063529 265.16845703 424.22705078 C264.18690895 424.22748886 264.18690895 424.22748886 263.18553162 424.22793579 C261.04281924 424.22655288 258.90046343 424.21104147 256.7578125 424.1953125 C255.2642333 424.19157866 253.77065163 424.18873344 252.27706909 424.18673706 C248.36109562 424.17912978 244.44527236 424.15950653 240.52935791 424.1373291 C236.52740511 424.11680783 232.52542784 424.10772195 228.5234375 424.09765625 C220.68222301 424.07625765 212.84113024 424.04215713 205 424 C204.69457275 424.78391113 204.38914551 425.56782227 204.07446289 426.37548828 C200.26411806 435.6827382 192.12955314 442.47414088 183.0625 446.4375 C172.91251215 449.73517538 160.1925308 449.61504795 150.38671875 445.3203125 C142.73584742 441.08791559 136.63128025 435.45691254 132 428 C131.67 426.68 131.34 425.36 131 424 C76.22 424 21.44 424 -35 424 C-35.66 425.65 -36.32 427.3 -37 429 C-42.21408447 437.71863305 -50.03273301 444.19417908 -59.71484375 447.33984375 C-71.69375935 449.7470218 -83.91121572 449.04405611 -94.41796875 442.4921875 C-100.79369587 437.89995524 -107.23843349 431.87251483 -109 424 C-109.61672577 424.00888245 -110.23345154 424.01776489 -110.86886597 424.0269165 C-117.32589386 424.11586221 -123.78274585 424.17592916 -130.24023438 424.21972656 C-132.64557981 424.23976034 -135.05087703 424.26699522 -137.45605469 424.30175781 C-140.92655378 424.35063808 -144.39640526 424.37305205 -147.8671875 424.390625 C-148.93113739 424.41127014 -149.99508728 424.43191528 -151.09127808 424.45318604 C-160.46350377 424.45596126 -168.50378763 422.20813703 -175.46875 415.703125 C-182.43850126 407.95105472 -184.30038781 400.10591677 -184.29052734 389.91479492 C-184.29724457 388.91400406 -184.30396179 387.9132132 -184.31088257 386.88209534 C-184.32984296 383.5815023 -184.33378584 380.28111283 -184.3359375 376.98046875 C-184.3423669 374.67889829 -184.34909537 372.37732864 -184.35610962 370.07575989 C-184.36807758 365.25320542 -184.37179094 360.43072256 -184.37060547 355.6081543 C-184.37040234 349.44126541 -184.39770092 343.27483765 -184.43214989 337.10805798 C-184.45443318 332.35441496 -184.45844256 327.60088266 -184.45738602 322.84719276 C-184.45973995 320.57429732 -184.46855167 318.30139873 -184.48405075 316.02855492 C-184.50373847 312.84317496 -184.49786111 309.65878602 -184.48583984 306.47338867 C-184.49707886 305.54269562 -184.50831787 304.61200256 -184.51989746 303.65310669 C-184.4353503 294.79651217 -181.15004133 286.49084966 -175 280 C-167.87126236 274.24766708 -167.87126236 274.24766708 -163.34375 273.6484375 C-162.18359375 273.32746094 -162.18359375 273.32746094 -161 273 C-159.93502749 270.78697762 -159.93502749 270.78697762 -159 268 C-157.36162129 265.5254676 -155.51227958 263.2141626 -153.6875 260.875 C-149.09132895 254.87537526 -144.72542679 248.76588074 -140.5 242.5 C-136.01999222 235.86892232 -131.37149757 229.42119865 -126.51953125 223.05859375 C-122.67534619 217.98346229 -119.06449113 212.77449423 -115.5 207.5 C-110.99594204 200.83798473 -106.34201607 194.33760784 -101.46459961 187.94433594 C-98.82058582 184.46691638 -96.2484621 180.95652174 -93.7578125 177.3671875 C-93.22293213 176.59648926 -92.68805176 175.82579102 -92.13696289 175.03173828 C-91.11651195 173.5528835 -90.10226574 172.0697203 -89.09545898 170.58154297 C-86.00509437 166.10317422 -82.97562383 162.48781191 -78 160 C-73.33091139 159.86003931 -68.67201378 159.95752715 -64 160 C-64 154.72 -64 149.44 -64 144 C-65.51851563 144.04640625 -67.03703125 144.0928125 -68.6015625 144.140625 C-70.60935528 144.17815384 -72.61716939 144.2145528 -74.625 144.25 C-75.62402344 144.28351563 -76.62304688 144.31703125 -77.65234375 144.3515625 C-83.81229285 144.43315123 -87.31627786 144.1132688 -92 140 C-95.62833663 136.18069828 -96.31000458 133.11720994 -96.5 128 C-96.31000458 122.88279006 -95.62833663 119.81930172 -92 116 C-86 112 -86 112 -64 112 C-64 93.52 -64 75.04 -64 56 C-42.88 56 -21.76 56 0 56 C0 37.52 0 19.04 0 0 Z M-32 144 C-32 149.28 -32 154.56 -32 160 C-0.32 160 31.36 160 64 160 C64 154.72 64 149.44 64 144 C32.32 144 0.64 144 -32 144 Z " fill="#28DE99" transform="translate(200,32)"/>
<path d="M0 0 C31.68 0 63.36 0 96 0 C96 36.96 96 73.92 96 112 C103.26 112 110.52 112 118 112 C125.75862069 117.17241379 125.75862069 117.17241379 128 122 C128.75381535 127.5997712 128.77303575 132.33499991 126.375 137.5 C122.98811998 141.06513686 120.41544878 143.69639119 115.45166016 144.3203125 C112.49977605 144.39313609 109.57603303 144.3490024 106.625 144.25 C105.60277344 144.23195312 104.58054687 144.21390625 103.52734375 144.1953125 C101.01725251 144.14839491 98.50912236 144.08276729 96 144 C96.01571045 145.05912598 96.0314209 146.11825195 96.04760742 147.20947266 C96.10210122 151.15666026 96.13642046 155.10381489 96.16479492 159.05126953 C96.17983738 160.75640463 96.20027653 162.46150132 96.22631836 164.16650391 C96.26290284 166.62412012 96.27977173 169.08122269 96.29296875 171.5390625 C96.30845261 172.29555084 96.32393646 173.05203918 96.33988953 173.83145142 C96.34160672 179.29006309 95.30676846 183.47096478 91.5 187.64453125 C86.09279135 191.85483174 81.72106323 192.82862423 75 192 C69.6964772 189.29820537 65.90167702 185.70503105 64 180 C64 168.12 64 156.24 64 144 C32.32 144 0.64 144 -32 144 C-32 155.88 -32 167.76 -32 180 C-34.99714911 185.99429822 -35.99273599 187.34886999 -41 191 C-45.07047347 192.35682449 -48.74391717 192.52472254 -53 192 C-58.3035228 189.29820537 -62.09832298 185.70503105 -64 180 C-64.08507079 177.2684044 -64.11591565 174.56308557 -64.09765625 171.83203125 C-64.0962413 171.03721848 -64.09482635 170.2424057 -64.09336853 169.42350769 C-64.08777378 166.88646675 -64.07522228 164.34951425 -64.0625 161.8125 C-64.05748432 160.09179815 -64.05292153 158.37109492 -64.04882812 156.65039062 C-64.03780607 152.4335597 -64.02054506 148.21679484 -64 144 C-64.63502441 144.02094727 -65.27004883 144.04189453 -65.92431641 144.06347656 C-68.82438076 144.14704581 -71.72419116 144.19878774 -74.625 144.25 C-75.62402344 144.28351563 -76.62304688 144.31703125 -77.65234375 144.3515625 C-83.81229285 144.43315123 -87.31627786 144.1132688 -92 140 C-95.62833663 136.18069828 -96.31000458 133.11720994 -96.5 128 C-96.31000458 122.88279006 -95.62833663 119.81930172 -92 116 C-86 112 -86 112 -64 112 C-64 93.52 -64 75.04 -64 56 C-42.88 56 -21.76 56 0 56 C0 37.52 0 19.04 0 0 Z " fill="#993300" transform="translate(200,32)"/>
<path d="M0 0 C1.25090675 -0.00935994 1.25090675 -0.00935994 2.52708435 -0.01890898 C5.31391906 -0.03482936 8.09987796 -0.0222386 10.88671875 -0.00964355 C12.88770049 -0.0150651 14.88867824 -0.02218794 16.88964844 -0.03088379 C22.3193745 -0.04911614 27.74879647 -0.04204986 33.17852783 -0.02936745 C38.86121438 -0.0192394 44.54387493 -0.02863259 50.2265625 -0.03491211 C59.76957879 -0.04218906 69.31247126 -0.03259948 78.85546875 -0.0135498 C89.88799463 0.00821896 100.92022482 0.00116763 111.95274353 -0.02085543 C121.42551708 -0.03900799 130.89820162 -0.04156843 140.37098694 -0.03110075 C146.02846117 -0.02486506 151.68579642 -0.02403236 157.34326172 -0.0372467 C162.66212809 -0.0488024 167.98061328 -0.04078433 173.29943848 -0.01766968 C175.25133633 -0.01238113 177.20326628 -0.01389885 179.15515137 -0.02272034 C181.82001297 -0.0336536 184.48365366 -0.01993932 187.1484375 0 C188.30671303 -0.01338433 188.30671303 -0.01338433 189.48838806 -0.02703905 C194.6676624 0.04811473 197.57125259 1.26427255 201.57421875 4.50793457 C205.20255538 8.32723629 205.88422333 11.39072463 206.07421875 16.50793457 C205.88422333 21.62514451 205.20255538 24.68863285 201.57421875 28.50793457 C196.10867566 33.30780254 191.2595369 32.99479686 184.19921875 32.75793457 C183.17699219 32.7398877 182.15476562 32.72184082 181.1015625 32.70324707 C178.59147126 32.65632948 176.08334111 32.59070186 173.57421875 32.50793457 C173.59778442 34.09662354 173.59778442 34.09662354 173.62182617 35.71740723 C173.67631997 39.66459483 173.71063921 43.61174946 173.73901367 47.5592041 C173.75405613 49.2643392 173.77449528 50.96943589 173.80053711 52.67443848 C173.83712159 55.13205469 173.85399048 57.58915726 173.8671875 60.04699707 C173.89041328 61.18172958 173.89041328 61.18172958 173.91410828 62.33938599 C173.91582547 67.79799766 172.88098721 71.97889935 169.07421875 76.15246582 C163.6670101 80.36276631 159.29528198 81.3365588 152.57421875 80.50793457 C147.27069595 77.80613994 143.47589577 74.21296562 141.57421875 68.50793457 C141.57421875 56.62793457 141.57421875 44.74793457 141.57421875 32.50793457 C109.89421875 32.50793457 78.21421875 32.50793457 45.57421875 32.50793457 C45.57421875 44.38793457 45.57421875 56.26793457 45.57421875 68.50793457 C42.57706964 74.50223279 41.58148276 75.85680456 36.57421875 79.50793457 C32.50374528 80.86475906 28.83030158 81.03265711 24.57421875 80.50793457 C19.27069595 77.80613994 15.47589577 74.21296562 13.57421875 68.50793457 C13.48914796 65.77633897 13.4583031 63.07102014 13.4765625 60.33996582 C13.47797745 59.54515305 13.4793924 58.75034027 13.48085022 57.93144226 C13.48644497 55.39440132 13.49899647 52.85744882 13.51171875 50.32043457 C13.51673443 48.59973272 13.52129722 46.87902949 13.52539062 45.1583252 C13.53641268 40.94149427 13.55367369 36.72472942 13.57421875 32.50793457 C12.93919434 32.52888184 12.30416992 32.5498291 11.64990234 32.57141113 C8.74983799 32.65498038 5.85002759 32.70672231 2.94921875 32.75793457 C1.95019531 32.7914502 0.95117188 32.82496582 -0.078125 32.85949707 C-6.2380741 32.9410858 -9.74205911 32.62120337 -14.42578125 28.50793457 C-18.05411788 24.68863285 -18.73578583 21.62514451 -18.92578125 16.50793457 C-18.73578583 11.39072463 -18.05411788 8.32723629 -14.42578125 4.50793457 C-9.68360854 0.66528267 -5.93912301 -0.06862891 0 0 Z " fill="#656666" transform="translate(122.42578125,143.4920654296875)"/>
<path d="M0 0 C1.70209877 0.00333092 1.70209877 0.00333092 3.43858337 0.00672913 C5.3874646 0.0069104 5.3874646 0.0069104 7.37571716 0.00709534 C8.76638333 0.01213182 10.15704904 0.01729845 11.54771423 0.02259827 C12.80483215 0.02360535 14.06195007 0.02461243 15.35716248 0.02565002 C20.07563686 0.03090176 24.79409829 0.04486286 29.51255798 0.05775452 C45.32162048 0.08869202 45.32162048 0.08869202 61.45005798 0.12025452 C61.45005798 26.52025452 61.45005798 52.92025452 61.45005798 80.12025452 C21.52005798 80.12025452 -18.40994202 80.12025452 -59.54994202 80.12025452 C-55.45561551 73.68631286 -51.5551192 67.58989881 -46.92494202 61.62025452 C-42.43893784 55.74341804 -38.18717883 49.74715484 -34.04994202 43.62025452 C-29.54801391 36.96080366 -24.89067747 30.46764047 -20.02333069 24.07118225 C-15.63797293 18.29197765 -11.4491622 12.38428064 -7.2938385 6.43812561 C-2.88754253 0.13617566 -2.88754253 0.13617566 0 0 Z " fill="#3299CB" transform="translate(138.54994201660156,223.87974548339844)"/>
<path d="M0 0 C10.35375 -0.268125 20.7075 -0.53625 31.375 -0.8125 C36.25031494 -0.99002808 36.25031494 -0.99002808 41.22412109 -1.17114258 C62.89518217 -1.6375634 62.89518217 -1.6375634 68.04638672 2.62426758 C70.82111808 5.74737742 72.36309208 9.18045801 74 13 C75.09458338 14.64714794 76.2241605 16.2719665 77.3984375 17.86328125 C78.39362669 19.34434161 79.38581585 20.82742222 80.375 22.3125 C84.43513133 28.33053826 88.59671957 34.2282998 93 40 C98.01214625 46.57184976 102.69886023 53.32868242 107.3269043 60.17529297 C111.21188006 65.90481854 115.26038213 71.46498366 119.48828125 76.9453125 C121 79 121 79 121 80 C81.07 80 41.14 80 0 80 C0 53.6 0 27.2 0 0 Z " fill="#3299CB" transform="translate(232,224)"/>
<path d="M0 0 C8.95850358 5.36331464 15.80572833 13.29511423 18.6875 23.4140625 C21.28412319 35.06280262 20.36808602 47.12386563 14.4921875 57.71875 C8.16239869 66.31548644 -0.43579389 72.87710959 -11 75 C-23.41718084 76.33804566 -34.38890709 75.27526374 -44.75 67.8125 C-54.96479568 59.13266467 -58.82545713 49.73984131 -60.4140625 36.56640625 C-60.89562751 26.00999432 -57.22452991 16.89534035 -50.59375 8.7421875 C-37.05888121 -6.05328181 -17.93726281 -9.26108678 0 0 Z " fill="#989999" transform="translate(388,405)"/>
<path d="M0 0 C8.95850358 5.36331464 15.80572833 13.29511423 18.6875 23.4140625 C21.28412319 35.06280262 20.36808602 47.12386563 14.4921875 57.71875 C8.16239869 66.31548644 -0.43579389 72.87710959 -11 75 C-23.41718084 76.33804566 -34.38890709 75.27526374 -44.75 67.8125 C-54.96479568 59.13266467 -58.82545713 49.73984131 -60.4140625 36.56640625 C-60.89562751 26.00999432 -57.22452991 16.89534035 -50.59375 8.7421875 C-37.05888121 -6.05328181 -17.93726281 -9.26108678 0 0 Z " fill="#989999" transform="translate(148,405)"/>
<path d="M0 0 C21.12 0 42.24 0 64 0 C64 18.48 64 36.96 64 56 C42.88 56 21.76 56 0 56 C0 37.52 0 19.04 0 0 Z " fill="#CC6633" transform="translate(136,88)"/>
<path d="M0 0 C0.98111 -0.00021904 0.98111 -0.00021904 1.98204041 -0.0004425 C4.13552207 0.00025198 6.28891633 0.00802256 8.44238281 0.01586914 C9.93882195 0.01773497 11.4352617 0.0191581 12.93170166 0.02015686 C16.86409196 0.02396904 20.79644514 0.03378822 24.7288208 0.04486084 C29.45036553 0.05690468 34.17192269 0.06148339 38.89347839 0.06731415 C46.06084733 0.07700068 53.22813486 0.09616631 60.39550781 0.11352539 C60.39550781 10.67352539 60.39550781 21.23352539 60.39550781 32.11352539 C43.95535252 32.23385182 43.95535252 32.23385182 36.92089844 32.26000977 C32.13018769 32.27790898 27.33964976 32.29903168 22.54907227 32.33984375 C18.68464329 32.37255787 14.82039979 32.39040366 10.95584297 32.39815712 C9.48511398 32.40367909 8.01439458 32.41446209 6.54374504 32.43071556 C4.47580292 32.45265108 2.40861683 32.45548575 0.34057617 32.45410156 C-1.42147911 32.46409431 -1.42147911 32.46409431 -3.21913147 32.47428894 C-7.79425569 31.98673733 -11.7927754 30.67338917 -15.34667969 27.61352539 C-19.11303871 22.62634654 -20.02047391 19.35325128 -19.60449219 13.11352539 C-17.7857575 7.25315806 -15.51270139 4.51922157 -10.60449219 1.11352539 C-7.10248654 -0.11847373 -3.68609561 -0.00692875 0 0 Z " fill="#209E6B" transform="translate(435.6044921875,351.886474609375)"/>
<path d="M0 0 C16.68972122 -0.16043524 16.68972122 -0.16043524 23.83007812 -0.1953125 C28.69329387 -0.21917997 33.556207 -0.24734751 38.41918945 -0.30175781 C42.34198754 -0.34537165 46.26446091 -0.36916967 50.18748283 -0.37950897 C51.6805628 -0.38687263 53.17362595 -0.40125219 54.66656685 -0.42292023 C69.19402155 -0.62529001 69.19402155 -0.62529001 75 4 C78.92410819 8.1306402 79.79145994 10.78947536 80.3125 16.3125 C79.82575206 22.05612567 77.62503463 25.49387034 73.4375 29.375 C69.36110029 32.09259981 66.21276618 32.12238959 61.41723633 32.11352539 C60.75355545 32.11367142 60.08987457 32.11381744 59.40608215 32.1139679 C57.21469848 32.11327182 55.02340005 32.1054937 52.83203125 32.09765625 C51.31174262 32.09579099 49.79145339 32.09436759 48.27116394 32.09336853 C44.27135557 32.08955188 40.27158356 32.07972885 36.27178955 32.06866455 C31.47184246 32.05663282 26.67188321 32.05204413 21.87192535 32.04621124 C14.58125829 32.03651665 7.29067099 32.01735415 0 32 C0 21.44 0 10.88 0 0 Z " fill="#209E6B" transform="translate(16,352)"/>
</svg>
